<svg xmlns="http://www.w3.org/2000/svg" viewBox="0 0 24 24" width="24" height="24" shape-rendering="crispEdges" role="img" aria-label="Coffee cup">
  <g fill="#f6b967">
    <rect x="11" y="1" width="1" height="1" />
    <rect x="10" y="2" width="1" height="2" />
    <rect x="11" y="4" width="1" height="1" />
    <rect x="12" y="5" width="1" height="2" />
    <rect x="11" y="7" width="1" height="1" />
    <rect x="8" y="3" width="1" height="2" />
    <rect x="7" y="5" width="1" height="2" />
    <rect x="8" y="7" width="1" height="1" />
    <rect x="16" y="4" width="1" height="1" />
    <rect x="17" y="5" width="1" height="2" />
    <rect x="16" y="7" width="1" height="1" />
  </g>
  <g fill="#2b120c">
    <rect x="7" y="7" width="10" height="1" />
    <rect x="5" y="8" width="14" height="1" />
    <rect x="4" y="9" width="16" height="3" />
    <rect x="5" y="12" width="1" height="8" />
    <rect x="18" y="12" width="1" height="8" />
    <rect x="6" y="20" width="1" height="1" />
    <rect x="17" y="20" width="1" height="1" />
    <rect x="7" y="21" width="10" height="1" />
  </g>
  <g fill="#5a2a1d">
    <rect x="7" y="8" width="10" height="1" />
    <rect x="5" y="9" width="14" height="1" />
    <rect x="5" y="10" width="14" height="1" />
    <rect x="6" y="11" width="12" height="1" />
    <rect x="6" y="12" width="12" height="1" />
  </g>
  <g fill="#7a432d">
    <rect x="7" y="10" width="10" height="1" />
    <rect x="8" y="12" width="8" height="1" />
    <rect x="7" y="13" width="10" height="1" />
  </g>
  <g fill="#d08a56">
    <rect x="6" y="9" width="3" height="1" />
    <rect x="6" y="11" width="5" height="1" />
    <rect x="14" y="11" width="3" height="1" />
  </g>
  <g fill="#fff0c9">
    <rect x="6" y="13" width="12" height="3" />
    <rect x="7" y="16" width="10" height="1" />
    <rect x="7" y="19" width="10" height="2" />
  </g>
  <g fill="#ffd786">
    <rect x="6" y="13" width="1" height="3" />
    <rect x="17" y="13" width="1" height="3" />
    <rect x="7" y="20" width="2" height="1" />
    <rect x="15" y="20" width="2" height="1" />
  </g>
  <g fill="#c87133">
    <rect x="6" y="16" width="12" height="1" />
    <rect x="6" y="17" width="12" height="3" />
  </g>
  <g fill="#d98b3c">
    <rect x="7" y="17" width="4" height="3" />
    <rect x="15" y="17" width="2" height="3" />
  </g>
  <g fill="#9a5529">
    <rect x="11" y="17" width="1" height="3" />
    <rect x="12" y="16" width="2" height="1" />
    <rect x="12" y="20" width="2" height="1" />
    <rect x="14" y="17" width="1" height="3" />
  </g>
  <g fill="#6f361c">
    <rect x="12" y="17" width="2" height="1" />
    <rect x="11" y="18" width="3" height="2" />
  </g>
  <g fill="#f8c775">
    <rect x="7" y="14" width="2" height="1" />
    <rect x="16" y="14" width="1" height="1" />
    <rect x="8" y="19" width="2" height="1" />
  </g>
</svg>
